<svg xmlns="http://www.w3.org/2000/svg" width="15.85" height="13.73" viewBox="0 0 15.85 13.73">
  <defs>
    <style>
      .a {
        fill: #fff;
        stroke: #231f20;
        stroke-miterlimit: 10;
        stroke-width: 0.75px;
      }
    </style>
  </defs>
  <polygon class="a" points="11.67 0.38 4.18 0.38 0.43 6.87 4.18 13.35 11.67 13.35 15.42 6.87 11.67 0.38"/>
  <path d="M10.92,10.79l-1-1a4,4,0,0,1-1.16.85,3.38,3.38,0,0,1-1.42.3,3.06,3.06,0,0,1-1.06-.17,2.69,2.69,0,0,1-.87-.47,2.29,2.29,0,0,1-.58-.73,2.13,2.13,0,0,1-.22-.94,2.07,2.07,0,0,1,.15-.8,2.45,2.45,0,0,1,.39-.66,3.48,3.48,0,0,1,.58-.57c.22-.18.44-.35.68-.51-.21-.23-.39-.44-.54-.62a3.46,3.46,0,0,1-.36-.51,2.15,2.15,0,0,1-.2-.45A1.61,1.61,0,0,1,5.27,4a1.67,1.67,0,0,1,.16-.74,1.89,1.89,0,0,1,.45-.6,2.16,2.16,0,0,1,.68-.39,2.34,2.34,0,0,1,.85-.15,2.45,2.45,0,0,1,.78.12,1.93,1.93,0,0,1,.63.35,1.46,1.46,0,0,1,.42.53,1.58,1.58,0,0,1,.16.68,1.51,1.51,0,0,1-.15.68,2.5,2.5,0,0,1-.4.58,4.35,4.35,0,0,1-.59.53l-.72.51L9.93,8.63a4.83,4.83,0,0,0,.37-1,4.09,4.09,0,0,0,.14-1.12h.7a5.7,5.7,0,0,1-.2,1.4,4.6,4.6,0,0,1-.53,1.22L12,10.79Zm-3.48-.54A2.38,2.38,0,0,0,8.57,10a3,3,0,0,0,.91-.71L6.9,6.56a5.36,5.36,0,0,0-1.05.93,1.67,1.67,0,0,0-.42,1.13,1.35,1.35,0,0,0,.17.7,1.64,1.64,0,0,0,.46.52,2.06,2.06,0,0,0,.65.31A2.57,2.57,0,0,0,7.44,10.25ZM6,4a1,1,0,0,0,0,.29,1.23,1.23,0,0,0,.16.33c.08.12.19.27.32.43a6,6,0,0,0,.52.58A9.44,9.44,0,0,0,8.2,4.79a1.21,1.21,0,0,0,.44-.92,1,1,0,0,0-.35-.77,1.29,1.29,0,0,0-.88-.3,1.47,1.47,0,0,0-.56.1,1.34,1.34,0,0,0-.43.26,1.17,1.17,0,0,0-.29.38A1.07,1.07,0,0,0,6,4Z" transform="translate(-0.07 -0.14)"/>
</svg>
