<?xml version="1.0" encoding="utf-8"?>
<!-- Generator: Adobe Illustrator 25.3.1, SVG Export Plug-In . SVG Version: 6.00 Build 0)  -->
<svg version="1.1" id="Layer_1" xmlns="http://www.w3.org/2000/svg" xmlns:xlink="http://www.w3.org/1999/xlink" x="0px" y="0px"
	 viewBox="0 0 502.6 434.7" style="enable-background:new 0 0 502.6 434.7;" xml:space="preserve">
<style type="text/css">
	.st0{
		fill:#ffffff;
		transform-box: fill-box;
  		transform-origin: center;
		animation: quickspin 10s cubic-bezier(0.33, 1, 0.68, 1) infinite;
	}

	@keyframes quickspin {
		0% {
			transform:rotate(0deg);
		}
		2%, 100% {
			transform:rotate(60deg);
		}
	}
</style>
<polygon class="st0" points="376.4,0 125.5,0 0,217.3 125.5,434.6 376.4,434.6 501.8,217.3 "/>
<g>
	<path d="M355.5,346.8l-39.6-41.2c-10.4,13.6-23.1,24.5-38,32.8c-14.9,8.3-31.6,12.4-50,12.4c-11.2,0-22.1-1.7-32.8-5
		c-10.7-3.3-20.1-8.1-28.2-14.4c-8.1-6.3-14.7-13.9-19.6-23c-4.9-9.1-7.4-19.5-7.4-31.2c0-9.9,1.8-18.8,5.4-26.8
		c3.6-8,8.4-15.5,14.4-22.4c6-6.9,13-13.5,21-19.6c8-6.1,16.4-12.3,25.2-18.4c-8-8.5-14.8-16.1-20.4-22.8
		c-5.6-6.7-10.1-12.8-13.6-18.4c-3.5-5.6-5.9-10.9-7.4-15.8c-1.5-4.9-2.2-9.8-2.2-14.6c0-8,1.7-15.5,5.2-22.6
		c3.5-7.1,8.3-13.3,14.4-18.8c6.1-5.5,13.3-9.8,21.6-13c8.3-3.2,17.2-4.8,26.8-4.8c8.8,0,17,1.3,24.6,4c7.6,2.7,14.1,6.4,19.6,11.2
		c5.5,4.8,9.7,10.4,12.8,16.8c3.1,6.4,4.6,13.2,4.6,20.4c0,8.3-1.9,15.9-5.6,23c-3.7,7.1-8.7,13.8-15,20.2
		c-6.3,6.4-13.5,12.7-21.6,18.8c-8.1,6.1-16.6,12.1-25.4,18l90.8,94.8c6.4-11.2,11.3-23.2,14.8-36c3.5-12.8,5.2-26,5.2-39.6h12.4
		c0,15.2-2.1,30-6.2,44.4c-4.1,14.4-10.1,27.7-17.8,40l50,51.6H355.5z M229.5,339.2c16.5,0,31.4-3.8,44.6-11.4
		c13.2-7.6,24.5-17.8,33.8-30.6l-94-98.8c-8.3,5.6-16.1,11.3-23.4,17c-7.3,5.7-13.7,11.8-19.2,18.2c-5.5,6.4-9.8,13.3-13,20.6
		c-3.2,7.3-4.8,15.3-4.8,23.8c0,10.4,2.3,19.4,6.8,27c4.5,7.6,10.5,13.9,17.8,19c7.3,5.1,15.5,8.9,24.6,11.4
		C211.8,337.9,220.7,339.2,229.5,339.2z M175.5,118.4c0,3.5,0.5,7.1,1.6,11c1.1,3.9,3.1,8.3,6,13.4c2.9,5.1,7,10.9,12.2,17.4
		c5.2,6.5,12.1,14.2,20.6,23c9.6-6.4,18.3-12.5,26-18.2c7.7-5.7,14.4-11.4,20-17c5.6-5.6,9.9-11.3,12.8-17
		c2.9-5.7,4.4-11.9,4.4-18.6c0-12-4.6-21.9-13.8-29.6c-9.2-7.7-20.9-11.6-35-11.6c-7.7,0-14.9,1.3-21.6,3.8
		c-6.7,2.5-12.5,5.9-17.4,10.2c-4.9,4.3-8.8,9.3-11.6,15C176.9,105.9,175.5,112,175.5,118.4z"/>
</g>
</svg>
