<?xml version="1.0" encoding="utf-8"?>
<!-- Generator: Adobe Illustrator 26.0.2, SVG Export Plug-In . SVG Version: 6.00 Build 0)  -->
<svg version="1.1" id="Layer_1" xmlns="http://www.w3.org/2000/svg" xmlns:xlink="http://www.w3.org/1999/xlink" x="0px" y="0px"
	 width="32px" height="32px" viewBox="0 0 32 32" style="enable-background:new 0 0 32 32;" xml:space="preserve">
<style type="text/css">
	.st0{fill:#231F20;}
</style>
<g>
	<path class="st0" d="M26.4163132,8.8278999H5.5836873c-0.6599998,0-1.1999998-0.5400009-1.1999998-1.2000003V6.3721004
		c0-0.6599998,0.54-1.1999998,1.1999998-1.1999998h20.8326263c0.6599998,0,1.1999989,0.54,1.1999989,1.1999998v1.2557993
		C27.616312,8.287899,27.076313,8.8278999,26.4163132,8.8278999z"/>
	<g>
		<path class="st0" d="M26.4163132,17.8278999H5.5836873c-0.6599998,0-1.1999998-0.5400009-1.1999998-1.2000008v-1.2557983
			c0-0.6599998,0.54-1.2000008,1.1999998-1.2000008h20.8326263c0.6599998,0,1.1999989,0.5400009,1.1999989,1.2000008v1.2557983
			C27.616312,17.287899,27.076313,17.8278999,26.4163132,17.8278999z"/>
	</g>
	<g>
		<path class="st0" d="M26.4163132,26.8278999H5.5836873c-0.6599998,0-1.1999998-0.5400009-1.1999998-1.2000008v-1.2557983
			c0-0.6599998,0.54-1.2000008,1.1999998-1.2000008h20.8326263c0.6599998,0,1.1999989,0.5400009,1.1999989,1.2000008v1.2557983
			C27.616312,26.287899,27.076313,26.8278999,26.4163132,26.8278999z"/>
	</g>
</g>
</svg>
